<?xml version="1.0" encoding="UTF-8"?>
<svg id="Layer_1" data-name="Layer 1" xmlns="http://www.w3.org/2000/svg" version="1.1" viewBox="0 0 63.4 25.4">
  <defs>
    <style>
      .cls-1 {
        fill: #000;
      }

      .cls-1, .cls-2 {
        stroke-width: 0px;
      }

      .cls-2 {
        fill: #fff;
      }
    </style>
  </defs>
  <g id="Laag_2" data-name="Laag 2">
    <g id="Laag_1-2" data-name="Laag 1-2">
      <rect class="cls-2" width="63.4" height="25.4"/>
      <path class="cls-1" d="M.5,9.9c0-1.3,1.2-1.9,4.2-2.2,0-.8-.5-1.4-1.3-1.5,0,0-.2,0-.3,0-.7,0-1.4.3-2,.7l-.4-.7c.8-.5,1.7-.8,2.6-.8,1.2-.1,2.3.7,2.4,1.9,0,.2,0,.3,0,.5v3.6h-.9v-.8h0c-.6.6-1.5.9-2.3,1-1,.1-1.9-.6-2-1.5,0,0,0-.1,0-.2ZM4.7,9.9v-1.5c-2.5.2-3.2.7-3.2,1.5s.6.9,1.3.9c.7,0,1.4-.4,2-.9h0Z"/>
      <path class="cls-1" d="M7.5,8.5c-.1-1.5,1-2.9,2.5-3.1,0,0,0,0,.1,0,.7,0,1.3.3,1.8.8h0v-3.3h1v8.5h-.8v-.8h-.1c-.5.5-1.2.9-1.9.9-1.6,0-2.6-1.1-2.6-3ZM11.8,9.8v-2.9c-.4-.4-1-.7-1.5-.7-1.1,0-1.9,1.1-1.8,2.2,0,0,0,0,0,0,0,1.4.6,2.2,1.7,2.2.6,0,1.2-.3,1.6-.9Z"/>
      <path class="cls-1" d="M14.6,13.6l.3-.7c.4.2.9.3,1.3.3,1.2,0,1.5-.6,1.5-1.6v-5.2h-2.7v-.8h3.7v6c.2,1.2-.6,2.3-1.8,2.5-.2,0-.5,0-.7,0-.6,0-1.2-.2-1.7-.5ZM17.3,3.6c0-.4.3-.8.8-.8s.8.3.8.8c0,.4-.3.8-.8.8,0,0,0,0,0,0-.4,0-.8-.3-.8-.7,0,0,0,0,0,0Z"/>
      <path class="cls-1" d="M22,9.2v-3.6h1v3.5c0,1.1.4,1.6,1.3,1.6.8,0,1.4-.5,1.8-1.1v-4h1v5.8h-.8v-1h-.1c-.5.7-1.3,1.1-2.2,1.2-1.3,0-2-.9-2-2.4Z"/>
      <path class="cls-1" d="M29.2,10.6l.5-.7c.7.5,1.6.8,2.5.8,1,0,1.5-.4,1.5-.9s-.2-.8-1.8-1.1-2.3-.8-2.3-1.7.8-1.7,2.4-1.7c.8,0,1.7.3,2.3.8l-.5.6c-.6-.4-1.3-.6-2-.6-1,0-1.3.4-1.3.8s.5.7,1.7,1c1.9.4,2.4.9,2.4,1.8s-.9,1.8-2.6,1.8c-1,0-2-.4-2.9-1Z"/>
      <path class="cls-1" d="M36.9,3.1h-8V.5h19.1v2.6h-8v21.6h-3.1V3.1Z"/>
      <path class="cls-1" d="M42.7,21.8c0-1.6,1.2-3,2.8-3,0,0,.1,0,.2,0,1.4,0,2.6,1,2.6,2.4,0,.1,0,.2,0,.4,0,.2,0,.4,0,.6h-5v-.8h4.3l-.2.3c0-1.4-.7-2.1-1.8-2.1-1.1,0-2,1-2,2.1,0,0,0,.1,0,.2,0,1.2.8,2.2,1.9,2.3.1,0,.2,0,.3,0,.6,0,1.2-.2,1.8-.6l.4.6c-.7.5-1.4.7-2.2.7-1.7,0-3.1-1.2-3.1-2.9,0,0,0-.1,0-.2Z"/>
      <path class="cls-1" d="M52,21.8l-2-2.8h1l1,1.3c.2.3.5.7.7,1h0c.2-.3.5-.7.7-1l.9-1.3h1l-2,2.9,2.2,2.9h-1.1l-1-1.3c-.2-.3-.5-.7-.8-1.1h0c-.2.4-.5.7-.7,1.1l-1,1.3h-1l2.2-3Z"/>
      <path class="cls-1" d="M58.7,22.5v-2.8h-1.7v-.7h1.7c0,0,.1-1.9.1-1.9h.8v1.9h2.8v.8h-2.8v2.8c0,1,.3,1.6,1.5,1.6.5,0,.9,0,1.4-.3l.2.7c-.6.2-1.2.3-1.8.3-1.7,0-2.3-1-2.3-2.4Z"/>
      <polygon class="cls-1" points="61.8 8.5 49.5 5.1 49.5 12 61.8 8.5"/>
      <polygon class="cls-1" points="1.1 22 13.3 25.4 13.3 18.5 1.1 22"/>
      <rect class="cls-1" x="13.3" y="20.1" width="21.8" height="3.7"/>
      <rect class="cls-1" x="42.2" y="6.7" width="7.4" height="3.7"/>
    </g>
  </g>
</svg>
