<svg xmlns="http://www.w3.org/2000/svg" viewBox="0 0 63.4 25.42"><defs><style>.cls-1{fill:#fff;stroke:#1d1d1b;stroke-miterlimit:10;}.cls-2{fill:#020202;}</style></defs><title>adjustText_logo</title><g id="Laag_2" data-name="Laag 2"><g id="Laag_1-2" data-name="Laag 1"><path class="cls-1" d="M1.46,16.29c0-1.3,1.22-1.94,4.23-2.18a1.38,1.38,0,0,0-1.54-1.46,4.1,4.1,0,0,0-2,.69l-.4-.67a5.13,5.13,0,0,1,2.6-.84,2.17,2.17,0,0,1,2.38,2.4v3.58H5.86L5.78,17h0A3.86,3.86,0,0,1,3.45,18,1.77,1.77,0,0,1,1.46,16.29Zm4.23,0V14.77c-2.49.19-3.25.68-3.25,1.45s.6.93,1.27.93A3.2,3.2,0,0,0,5.69,16.28Z" transform="translate(-0.96 -6.44)"/><path class="cls-1" d="M8.42,14.9a2.81,2.81,0,0,1,2.64-3.07,2.51,2.51,0,0,1,1.75.75h0l0-1.07V9.27h1v8.54H13L12.88,17h0a2.77,2.77,0,0,1-1.9.91C9.43,18,8.42,16.85,8.42,14.9Zm4.37,1.35V13.34a2.17,2.17,0,0,0-1.53-.67,2,2,0,0,0-1.82,2.22c0,1.39.65,2.22,1.71,2.22A2.23,2.23,0,0,0,12.79,16.25Z" transform="translate(-0.96 -6.44)"/><path class="cls-1" d="M15.56,20l.32-.74a3.17,3.17,0,0,0,1.33.32c1.16,0,1.47-.59,1.47-1.57V12.78H16V12h3.69v6a2.14,2.14,0,0,1-2.44,2.46A3.84,3.84,0,0,1,15.56,20Zm2.72-10a.8.8,0,1,1,.79.76A.74.74,0,0,1,18.28,10Z" transform="translate(-0.96 -6.44)"/><path class="cls-1" d="M23,15.6V12h1v3.49c0,1.09.38,1.62,1.34,1.62A2.32,2.32,0,0,0,27.17,16V12h1v5.83h-.83l-.08-1h-.05A2.85,2.85,0,0,1,25,18C23.66,18,23,17.13,23,15.6Z" transform="translate(-0.96 -6.44)"/><path class="cls-1" d="M30.15,17l.46-.66a4.15,4.15,0,0,0,2.53.79c1,0,1.46-.41,1.46-.9s-.23-.76-1.81-1.08-2.28-.83-2.28-1.7.83-1.66,2.42-1.66a4.32,4.32,0,0,1,2.35.75l-.48.63a3.42,3.42,0,0,0-1.95-.61c-1,0-1.34.4-1.34.84s.5.72,1.7,1c1.93.42,2.4.9,2.4,1.8S34.69,18,33,18A5.15,5.15,0,0,1,30.15,17Z" transform="translate(-0.96 -6.44)"/><path class="cls-1" d="M37.87,9.56h-8V6.94H49V9.56H41V31.21H37.87Z" transform="translate(-0.96 -6.44)"/><path class="cls-1" d="M43.62,28.28a2.92,2.92,0,0,1,3-3A2.5,2.5,0,0,1,49.25,28a4.73,4.73,0,0,1,0,.6H44.28V27.8h4.34l-.25.28c0-1.38-.69-2.06-1.75-2.06a2.05,2.05,0,0,0-2,2.26,2.12,2.12,0,0,0,2.28,2.28A3.1,3.1,0,0,0,48.65,30l.36.65a4,4,0,0,1-2.25.69A3,3,0,0,1,43.62,28.28Z" transform="translate(-0.96 -6.44)"/><path class="cls-1" d="M53,28.19l-2-2.81H52L53,26.65c.21.33.45.67.69,1h0c.22-.32.46-.68.66-1l.87-1.26h1L54.2,28.27l2.23,2.94h-1.1l-1-1.34c-.25-.33-.52-.72-.77-1.06h0c-.24.35-.48.7-.72,1.07l-1,1.33h-1Z" transform="translate(-0.96 -6.44)"/><path class="cls-1" d="M59.67,28.94V26.18H58v-.74l1.69-.06.13-1.87h.83v1.87h2.85v.8H60.67V29c0,1,.35,1.58,1.47,1.58a3.74,3.74,0,0,0,1.39-.27l.22.74a5.13,5.13,0,0,1-1.82.34C60.22,31.35,59.67,30.38,59.67,28.94Z" transform="translate(-0.96 -6.44)"/><polygon class="cls-2" points="61.76 8.52 49.54 5.06 49.54 11.99 61.76 8.52"/><polygon class="cls-2" points="1.06 21.95 13.28 25.41 13.28 18.48 1.06 21.95"/><rect class="cls-2" x="13.28" y="20.09" width="21.78" height="3.72"/><rect class="cls-2" x="42.17" y="6.66" width="7.37" height="3.72"/></g></g></svg>